<?xml version="1.0" encoding="UTF-8" standalone="no"?>
<svg
   xmlns:dc="http://purl.org/dc/elements/1.1/"
   xmlns:cc="http://creativecommons.org/ns#"
   xmlns:rdf="http://www.w3.org/1999/02/22-rdf-syntax-ns#"
   xmlns:svg="http://www.w3.org/2000/svg"
   xmlns="http://www.w3.org/2000/svg"
   xmlns:sodipodi="http://sodipodi.sourceforge.net/DTD/sodipodi-0.dtd"
   xmlns:inkscape="http://www.inkscape.org/namespaces/inkscape"
   width="153.74782mm"
   height="105.4842mm"
   viewBox="0 0 153.74782 105.4842"
   version="1.1"
   id="svg8"
   sodipodi:docname="Bulwark-logo-dark.svg"
   inkscape:version="1.0.1 (3bc2e813f5, 2020-09-07)">
  <defs
     id="defs2" />
  <sodipodi:namedview
     id="base"
     pagecolor="#ffffff"
     bordercolor="#666666"
     borderopacity="1.0"
     inkscape:pageopacity="0.0"
     inkscape:pageshadow="2"
     inkscape:zoom="0.31011829"
     inkscape:cx="222.2286"
     inkscape:cy="427.9038"
     inkscape:document-units="mm"
     inkscape:current-layer="layer1"
     inkscape:document-rotation="0"
     showgrid="false"
     inkscape:window-width="852"
     inkscape:window-height="477"
     inkscape:window-x="8"
     inkscape:window-y="35"
     inkscape:window-maximized="0" />
  <metadata
     id="metadata5">
    <rdf:RDF>
      <cc:Work
         rdf:about="">
        <dc:format>image/svg+xml</dc:format>
        <dc:type
           rdf:resource="http://purl.org/dc/dcmitype/StillImage" />
        <dc:title></dc:title>
      </cc:Work>
    </rdf:RDF>
  </metadata>
  <g
     inkscape:label="Layer 1"
     inkscape:groupmode="layer"
     id="layer1"
     transform="translate(-32.080498,-27.888357)">
    <rect
       style="fill:#566355;fill-opacity:1;stroke-width:0.290024"
       id="rect1039"
       width="153.74782"
       height="105.4842"
       x="32.080498"
       y="27.888357"
       ry="12.080247" />
    <rect
       style="fill:#657365;fill-opacity:1;stroke-width:0.264583"
       id="rect973"
       width="12.826105"
       height="18.563047"
       x="102.88672"
       y="76.693993"
       ry="0.72186273" />
    <rect
       style="fill:#606e60;fill-opacity:1;stroke-width:0.0682524"
       id="rect1015"
       width="0.85350704"
       height="18.563047"
       x="102.88672"
       y="76.693993"
       ry="0.72186273" />
    <path
       sodipodi:type="star"
       style="fill:#44962a;fill-opacity:1;stroke-width:0.264583"
       id="path867"
       sodipodi:sides="3"
       sodipodi:cx="109.24064"
       sodipodi:cy="72.468719"
       sodipodi:r1="9.3560238"
       sodipodi:r2="4.6780119"
       sodipodi:arg1="0.52359878"
       sodipodi:arg2="1.5707963"
       inkscape:flatsided="true"
       inkscape:rounded="0.08"
       inkscape:randomized="0"
       d="m 117.34319,77.146731 c -0.6482,1.122723 -15.5569,1.122723 -16.20511,0 -0.6482,-1.122723 6.80615,-14.034035 8.10256,-14.034035 1.29641,0 8.75076,12.911313 8.10255,14.034035 z"
       inkscape:transform-center-x="1.1177239e-06"
       inkscape:transform-center-y="-2.3390074" />
    <rect
       style="fill:#748673;fill-opacity:1;stroke-width:0.264583"
       id="rect969"
       width="9.8030329"
       height="19.157551"
       x="81.606453"
       y="82.255608"
       ry="0.72186273" />
    <rect
       style="fill:#6b7b6a;fill-opacity:1;stroke-width:0.103241"
       id="rect995"
       width="1.4925884"
       height="19.157551"
       x="89.916901"
       y="82.255608"
       ry="0.72186273" />
    <path
       sodipodi:type="star"
       style="fill:#5ec83e;fill-opacity:1;stroke-width:0.264583"
       id="path867-3"
       sodipodi:sides="3"
       sodipodi:cx="73.600388"
       sodipodi:cy="122.28634"
       sodipodi:r1="9.3560238"
       sodipodi:r2="4.6780119"
       sodipodi:arg1="0.52359878"
       sodipodi:arg2="1.5707963"
       inkscape:flatsided="true"
       inkscape:rounded="0.08"
       inkscape:randomized="0"
       d="m 81.702942,126.96435 c -0.648205,1.12272 -15.556904,1.12272 -16.205109,0 -0.648204,-1.12272 6.806146,-14.03403 8.102555,-14.03403 1.296408,0 8.750758,12.91131 8.102554,14.03403 z"
       inkscape:transform-center-y="-1.9344795"
       transform="matrix(0.77921759,0,0,0.82705131,29.303643,-21.634762)" />
    <rect
       style="fill:#505b4f;fill-opacity:1;stroke-width:0.264583"
       id="rect944-6"
       width="5.5854144"
       height="21.59481"
       x="91.898933"
       y="82.513954"
       ry="0.72186273" />
    <rect
       style="fill:#495449;fill-opacity:1;stroke-width:0.0863371"
       id="rect993"
       width="0.59473771"
       height="21.59481"
       x="91.898933"
       y="82.513954"
       ry="0.72186273" />
    <path
       sodipodi:type="star"
       style="fill:#3f8c28;fill-opacity:1;stroke-width:0.264583"
       id="path867-3-6"
       sodipodi:sides="3"
       sodipodi:cx="73.600388"
       sodipodi:cy="122.28634"
       sodipodi:r1="9.3560238"
       sodipodi:r2="4.6780119"
       sodipodi:arg1="0.52359878"
       sodipodi:arg2="1.5707963"
       inkscape:flatsided="true"
       inkscape:rounded="0.11"
       inkscape:randomized="0"
       d="m 81.702942,126.96435 c -0.891281,1.54374 -15.313828,1.54374 -16.205109,0 -0.891281,-1.54374 6.319993,-14.03403 8.102555,-14.03403 1.782562,0 8.993835,12.49029 8.102554,14.03403 z"
       inkscape:transform-center-y="-1.2711936"
       transform="matrix(0.51204288,0,0,0.54347557,57.057718,14.214972)" />
    <rect
       style="fill:#758673;fill-opacity:1;stroke-width:0.264583"
       id="rect971"
       width="9.8030329"
       height="19.157551"
       x="129.56027"
       y="82.255608"
       ry="0.72186273" />
    <rect
       style="fill:#6e7e6c;fill-opacity:1;stroke-width:0.0941625"
       id="rect1017"
       width="1.241624"
       height="19.157551"
       x="138.12169"
       y="82.255608"
       ry="0.72186273" />
    <rect
       style="fill:#3a4339;fill-opacity:1;stroke-width:0.421335"
       id="rect977"
       width="73.800186"
       height="16.737097"
       x="71.944038"
       y="93.173622"
       ry="0.63311386" />
    <rect
       style="fill:#30382f;fill-opacity:1;stroke-width:0.0960515"
       id="rect987"
       width="3.8354146"
       height="16.737097"
       x="143.94659"
       y="93.173622"
       ry="0.63311386" />
    <rect
       style="fill:#3b443b;fill-opacity:1;stroke-width:0.265921"
       id="rect961"
       width="5.5854144"
       height="21.813801"
       x="144.84669"
       y="88.11367"
       ry="0.72918302" />
    <path
       sodipodi:type="star"
       style="fill:#306c20;fill-opacity:1;stroke-width:0.264583"
       id="path867-3-6-7-5"
       sodipodi:sides="3"
       sodipodi:cx="73.600388"
       sodipodi:cy="122.28634"
       sodipodi:r1="9.3560238"
       sodipodi:r2="4.6780119"
       sodipodi:arg1="0.52359878"
       sodipodi:arg2="1.5707963"
       inkscape:flatsided="true"
       inkscape:rounded="0.11"
       inkscape:randomized="0"
       d="m 81.702942,126.96435 c -0.891281,1.54374 -15.313828,1.54374 -16.205109,0 -0.891281,-1.54374 6.319993,-14.03403 8.102555,-14.03403 1.782562,0 8.993835,12.49029 8.102554,14.03403 z"
       inkscape:transform-center-y="-1.2711936"
       transform="matrix(0.51204289,0,0,0.54347557,109.87547,19.833311)" />
    <rect
       style="fill:#30382f;fill-opacity:1;stroke-width:0.0960515"
       id="rect983"
       width="3.8354146"
       height="16.737097"
       x="71.944038"
       y="93.173622"
       ry="0.63311386" />
    <rect
       style="fill:#394038;fill-opacity:1;stroke-width:0.265902"
       id="rect944"
       width="5.5854144"
       height="21.810587"
       x="68.103065"
       y="88.11367"
       ry="0.72907561" />
    <path
       sodipodi:type="star"
       style="fill:#306c20;fill-opacity:1;stroke-width:0.264583"
       id="path867-3-6-7"
       sodipodi:sides="3"
       sodipodi:cx="73.600388"
       sodipodi:cy="122.28634"
       sodipodi:r1="9.3560238"
       sodipodi:r2="4.6780119"
       sodipodi:arg1="0.52359878"
       sodipodi:arg2="1.5707963"
       inkscape:flatsided="true"
       inkscape:rounded="0.11"
       inkscape:randomized="0"
       d="m 81.702942,126.96435 c -0.891281,1.54374 -15.313828,1.54374 -16.205109,0 -0.891281,-1.54374 6.319993,-14.03403 8.102555,-14.03403 1.782562,0 8.993835,12.49029 8.102554,14.03403 z"
       inkscape:transform-center-y="-1.2711936"
       transform="matrix(0.51204289,0,0,0.54347557,33.139742,19.28806)" />
    <path
       sodipodi:type="star"
       style="fill:#5ec83e;fill-opacity:1;stroke-width:0.264583"
       id="path867-3-3"
       sodipodi:sides="3"
       sodipodi:cx="73.600388"
       sodipodi:cy="122.28634"
       sodipodi:r1="9.3560238"
       sodipodi:r2="4.6780119"
       sodipodi:arg1="0.52359878"
       sodipodi:arg2="1.5707963"
       inkscape:flatsided="true"
       inkscape:rounded="0.08"
       inkscape:randomized="0"
       d="m 81.702942,126.96435 c -0.648205,1.12272 -15.556904,1.12272 -16.205109,0 -0.648204,-1.12272 6.806146,-14.03403 8.102555,-14.03403 1.296408,0 8.750758,12.91131 8.102554,14.03403 z"
       inkscape:transform-center-y="-1.9344795"
       transform="matrix(0.7792176,0,0,0.8270513,77.167418,-22.282361)" />
    <rect
       style="fill:#30382f;fill-opacity:1;stroke-width:0.0960515"
       id="rect985"
       width="3.8354146"
       height="16.737097"
       x="119.87561"
       y="93.173622"
       ry="0.63311386" />
    <rect
       style="fill:#30382f;fill-opacity:1;stroke-width:0.0960515"
       id="rect991"
       width="3.8354146"
       height="16.737097"
       x="95.302673"
       y="93.173622"
       ry="0.63311386" />
    <rect
       style="fill:#434d42;fill-opacity:1;stroke-width:0.264583"
       id="rect975"
       width="25.524286"
       height="19.083277"
       x="96.081985"
       y="90.827446"
       ry="0.72186273" />
    <rect
       style="fill:#413516;fill-opacity:1;stroke-width:0.27499"
       id="rect979"
       width="13.320648"
       height="14.712284"
       x="102.39217"
       y="95.257042"
       ry="0.72186273" />
    <rect
       style="fill:#382f13;fill-opacity:1;stroke-width:0.0726681"
       id="rect981"
       width="0.93020868"
       height="14.712284"
       x="108.58739"
       y="95.257042"
       ry="0.72186273" />
    <g
       id="g1025"
       transform="translate(13.270313,-43.922277)">
      <rect
         style="fill:#6e7e6c;fill-opacity:1;stroke-width:0.264583"
         id="rect1019"
         width="0.8805728"
         height="6.9395838"
         x="95.590034"
         y="100.6386"
         ry="0.4402864" />
      <path
         sodipodi:type="star"
         style="fill:#b3851a;fill-opacity:1;stroke-width:0.264583"
         id="path1021"
         sodipodi:sides="3"
         sodipodi:cx="97.416138"
         sodipodi:cy="102.93175"
         sodipodi:r1="2.5337477"
         sodipodi:r2="1.2668738"
         sodipodi:arg1="2.0943951"
         sodipodi:arg2="3.1415927"
         inkscape:flatsided="true"
         inkscape:rounded="0.08"
         inkscape:randomized="0"
         d="m 96.149264,105.12604 c -0.30405,-0.17555 -0.30405,-4.21304 0,-4.38858 0.30405,-0.17555 3.800621,1.8432 3.800621,2.19429 0,0.35108 -3.496571,2.36983 -3.800621,2.19429 z"
         inkscape:transform-center-x="-0.51941707"
         inkscape:transform-center-y="-1.2820339e-06" />
    </g>
    <g
       id="g1031"
       transform="translate(51.367123,-25.871247)">
      <rect
         style="fill:#4b5649;fill-opacity:1;stroke-width:0.264583"
         id="rect1027"
         width="0.8805728"
         height="6.9395838"
         x="95.590034"
         y="100.6386"
         ry="0.4402864" />
      <path
         sodipodi:type="star"
         style="fill:#cb8702;fill-opacity:1;stroke-width:0.264583"
         id="path1029"
         sodipodi:sides="3"
         sodipodi:cx="97.416138"
         sodipodi:cy="102.93175"
         sodipodi:r1="2.5337477"
         sodipodi:r2="1.2668738"
         sodipodi:arg1="2.0943951"
         sodipodi:arg2="3.1415927"
         inkscape:flatsided="true"
         inkscape:rounded="0.08"
         inkscape:randomized="0"
         d="m 96.149264,105.12604 c -0.30405,-0.17555 -0.30405,-4.21304 0,-4.38858 0.30405,-0.17555 3.800621,1.8432 3.800621,2.19429 0,0.35108 -3.496571,2.36983 -3.800621,2.19429 z"
         inkscape:transform-center-x="-0.51941707"
         inkscape:transform-center-y="-1.2820339e-06" />
    </g>
    <g
       id="g1045"
       transform="translate(-25.4463,-25.871247)">
      <rect
         style="fill:#4b5649;fill-opacity:1;stroke-width:0.264583"
         id="rect1041"
         width="0.8805728"
         height="6.9395838"
         x="95.590034"
         y="100.6386"
         ry="0.4402864" />
      <path
         sodipodi:type="star"
         style="fill:#cb8702;fill-opacity:1;stroke-width:0.264583"
         id="path1043"
         sodipodi:sides="3"
         sodipodi:cx="97.416138"
         sodipodi:cy="102.93175"
         sodipodi:r1="2.5337477"
         sodipodi:r2="1.2668738"
         sodipodi:arg1="2.0943951"
         sodipodi:arg2="3.1415927"
         inkscape:flatsided="true"
         inkscape:rounded="0.08"
         inkscape:randomized="0"
         d="m 96.149264,105.12604 c -0.30405,-0.17555 -0.30405,-4.21304 0,-4.38858 0.30405,-0.17555 3.800621,1.8432 3.800621,2.19429 0,0.35108 -3.496571,2.36983 -3.800621,2.19429 z"
         inkscape:transform-center-x="-0.51941707"
         inkscape:transform-center-y="-1.2820339e-06" />
    </g>
    <g
       aria-label="Bulwark"
       id="text1089"
       style="font-size:14.1111px;line-height:1.25;font-family:'Ubuntu Mono';-inkscape-font-specification:'Ubuntu Mono';fill:#211814;fill-opacity:1;stroke-width:0.264583">
      <path
         id="path1095"
         style="font-weight:bold;font-size:14.1111px;fill:#211814;fill-opacity:1;stroke-width:0.264583"
         d="m 90.42615,47.284225 c 0.195107,2.327985 -2.482604,3.056954 -4.320642,2.71198 -1.310692,0.204975 -1.770351,-0.434633 -1.535464,-1.599028 0,-2.365352 0,-4.730703 0,-7.096054 1.691243,-0.210194 3.913704,-0.637211 5.136441,0.881949 0.922091,1.077244 -0.316347,2.728171 -0.591123,3.153831 0.812585,0.283373 1.321168,1.10338 1.310788,1.947322 z m -4.120441,-1.185333 c 0,0.790222 0,1.580443 0,2.370665 1.81648,0.96994 3.611812,-1.974717 1.252361,-2.353027 -0.416654,-0.03169 -0.834951,-0.01235 -1.252361,-0.01764 z m 0.677333,-1.439332 c 1.949276,0.259738 1.524714,-2.744724 -0.296336,-2.046107 -0.74816,0.05159 -0.226055,1.240133 -0.381,1.822681 -0.141763,0.425488 0.467653,0.141652 0.677336,0.223426 z" />
      <path
         id="path1097"
         style="font-weight:bold;font-size:14.1111px;fill:#211814;fill-opacity:1;stroke-width:0.264583"
         d="m 97.04423,49.697223 c -1.691099,0.430641 -4.479556,0.978111 -5.167309,-1.194152 -0.325688,-1.713686 -0.124899,-3.475308 -0.180798,-5.212288 0.542455,0.06907 1.35938,-0.136331 1.735665,0.09891 0.07063,1.579213 -0.178427,3.201196 0.211667,4.7412 0.816513,0.970835 2.083306,0.385152 1.650998,-0.820017 0,-1.340031 0,-2.680063 0,-4.020095 0.548566,0.06766 1.366834,-0.134377 1.749777,0.09891 0,2.102512 0,4.205024 0,6.307536 z" />
      <path
         id="path1099"
         style="font-weight:bold;font-size:14.1111px;fill:#211814;fill-opacity:1;stroke-width:0.264583"
         d="m 104.50898,49.640778 c -1.27277,0.667505 -3.50128,0.768328 -4.03247,-0.899144 -0.39659,-1.801882 -0.14282,-3.676166 -0.21498,-5.512655 -0.14502,-0.478918 0.32178,-1.569658 -0.296725,-1.575085 -0.462095,-0.149385 -1.55181,0.32885 -1.537714,-0.296725 1.39e-4,-0.611516 -0.20486,-1.428171 0.692359,-1.142608 0.95925,0 1.9185,0 2.87775,0 0.0108,2.502523 -0.0218,5.006212 0.0168,7.507988 0.0856,1.900889 2.63078,-0.367361 2.39548,1.302359 0.0332,0.20529 0.0664,0.41058 0.0995,0.61587 z" />
      <path
         id="path1101"
         style="font-weight:bold;font-size:14.1111px;fill:#211814;fill-opacity:1;stroke-width:0.264583"
         d="m 109.51839,49.923 c -0.40279,-0.805111 -0.79398,-2.77256 -1.0989,-2.841622 -0.57008,0.914655 -0.29686,3.125193 -1.7667,2.841622 -1.29741,-0.07158 -0.75419,-2.41022 -1.17547,-3.411358 0.15962,-0.93279 -0.96252,-3.096581 0.14706,-3.220859 1.65634,-0.446745 0.8373,1.688487 1.1192,2.692795 0.0791,0.85388 0.14593,3.054777 0.53114,1.131313 0.51908,-0.771452 0.0333,-2.741593 1.32736,-2.483553 1.18512,-0.09282 0.67847,1.938892 1.22235,2.714623 0.44398,1.69757 0.40233,-1.812712 0.50358,-2.537353 -0.2914,-1.309737 0.26374,-1.748008 1.44993,-1.517825 0.13579,1.168378 -0.24162,2.747026 -0.40863,4.06091 -0.32449,1.015144 0.0136,2.997686 -1.52773,2.571307 -0.10773,0 -0.21546,0 -0.32319,0 z" />
      <path
         id="path1103"
         style="font-weight:bold;font-size:14.1111px;fill:#211814;fill-opacity:1;stroke-width:0.264583"
         d="m 115.57202,48.681224 c 0.90355,0.207435 1.18896,-0.282697 1.016,-1.130322 0.0967,-1.061329 -2.84719,-0.564465 -2.14488,0.685828 0.2164,0.391083 0.73291,0.432471 1.12888,0.444494 z M 115.4168,43.12145 c 1.74303,-0.260189 3.14966,1.293471 2.83633,2.991945 0,1.218128 0,2.436255 0,3.654383 -1.62152,0.244843 -3.57413,0.733794 -5.01296,-0.312208 -1.16236,-1.089079 -0.55888,-3.376112 1.1183,-3.5119 1.00184,-0.217952 3.24915,0.378579 1.73566,-1.178277 -0.91936,-0.779132 -2.87298,0.843501 -2.73298,-0.827941 -0.5082,-1.055694 1.54438,-0.627391 2.05565,-0.816002 z" />
      <path
         id="path1105"
         style="font-weight:bold;font-size:14.1111px;fill:#211814;fill-opacity:1;stroke-width:0.264583"
         d="m 125.25221,45.054671 c -0.97971,-0.101237 -3.44605,-0.870337 -3.16088,0.734817 0,1.377837 0,2.755675 0,4.133512 -0.54857,-0.06766 -1.36684,0.134377 -1.74978,-0.09891 0,-2.031955 0,-4.06391 0,-6.095865 1.59871,-0.602178 3.73602,-0.836406 5.20237,-0.185108 -0.0972,0.503851 -0.19447,1.007701 -0.29171,1.511552 z" />
      <path
         id="path1107"
         style="font-weight:bold;font-size:14.1111px;fill:#211814;fill-opacity:1;stroke-width:0.264583"
         d="m 128.77996,45.915448 c 0.94523,-0.701433 1.22593,-2.492162 2.38543,-2.624665 0.40391,0.130291 2.0121,-0.316328 1.32226,0.338667 -0.6821,1.267228 -3.35569,2.41433 -1.33085,3.636254 0.36547,0.666034 2.32097,2.414436 1.46086,2.657296 -0.58396,-0.147454 -1.55781,0.354742 -1.79159,-0.373944 -0.47571,-0.700817 -1.66036,-2.824407 -2.04611,-2.461995 0,0.945313 0,1.890626 0,2.835939 -0.54856,-0.06766 -1.36683,0.134378 -1.74977,-0.09891 0,-3.132621 0,-6.265241 0,-9.397862 0.55152,-0.02824 1.36056,-0.361291 1.74977,-0.197425 0,1.895548 0,3.791095 0,5.686643 z" />
    </g>
    <text
       xml:space="preserve"
       style="font-size:8.46667px;line-height:1.25;font-family:'Ubuntu Mono';-inkscape-font-specification:'Ubuntu Mono';fill:#272321;fill-opacity:1;stroke-width:0.264583"
       x="68.396027"
       y="121.29127"
       id="text1093"><tspan
         sodipodi:role="line"
         id="tspan1091"
         x="68.396027"
         y="121.29127"
         style="font-size:8.46667px;fill:#272321;fill-opacity:1;stroke-width:0.264583">Keep (n)curses away.</tspan></text>
  </g>
</svg>
